<?xml version="1.0" encoding="UTF-8" ?>
<svg height="100" width="100" xmlns="http://www.w3.org/2000/svg" version="1.1">
<line x1="18.5" y1="18.5" x2="18.5" y2="39.5" style="stroke:rgb(255,0,0);stroke-width:2" />
<line x1="18.5" y1="39.5" x2="39.5" y2="39.5" style="stroke:rgb(255,0,0);stroke-width:2" />
<line x1="39.5" y1="39.5" x2="39.5" y2="18.5" style="stroke:rgb(255,0,0);stroke-width:2" />
<line x1="39.5" y1="18.5" x2="60.5" y2="18.5" style="stroke:rgb(255,0,0);stroke-width:2" />
<line x1="60.5" y1="18.5" x2="81.5" y2="18.5" style="stroke:rgb(255,0,0);stroke-width:2" />
<line x1="81.5" y1="18.5" x2="81.5" y2="39.5" style="stroke:rgb(255,0,0);stroke-width:2" />
<line x1="81.5" y1="39.5" x2="60.5" y2="39.5" style="stroke:rgb(255,0,0);stroke-width:2" />
<line x1="60.5" y1="39.5" x2="60.5" y2="60.5" style="stroke:rgb(255,0,0);stroke-width:2" />
<line x1="60.5" y1="60.5" x2="81.5" y2="60.5" style="stroke:rgb(255,0,0);stroke-width:2" />
<line x1="81.5" y1="60.5" x2="81.5" y2="81.5" style="stroke:rgb(255,0,0);stroke-width:2" />
<line x1="81.5" y1="81.5" x2="60.5" y2="81.5" style="stroke:rgb(255,0,0);stroke-width:2" />
<line x1="60.5" y1="81.5" x2="39.5" y2="81.5" style="stroke:rgb(255,0,0);stroke-width:2" />
<line x1="39.5" y1="81.5" x2="39.5" y2="60.5" style="stroke:rgb(255,0,0);stroke-width:2" />
<line x1="39.5" y1="60.5" x2="18.5" y2="60.5" style="stroke:rgb(255,0,0);stroke-width:2" />
<line x1="18.5" y1="60.5" x2="18.5" y2="81.5" style="stroke:rgb(255,0,0);stroke-width:2" />
</svg>