<?xml version="1.0" encoding="UTF-8" ?>
<svg height="100" width="100" xmlns="http://www.w3.org/2000/svg" version="1.1">
<line x1="10.625" y1="10.625" x2="10.625" y2="15.875" style="stroke:rgb(255,0,0);stroke-width:2" />
<line x1="10.625" y1="15.875" x2="15.875" y2="15.875" style="stroke:rgb(255,0,0);stroke-width:2" />
<line x1="15.875" y1="15.875" x2="15.875" y2="10.625" style="stroke:rgb(255,0,0);stroke-width:2" />
<line x1="15.875" y1="10.625" x2="21.125" y2="10.625" style="stroke:rgb(255,0,0);stroke-width:2" />
<line x1="21.125" y1="10.625" x2="26.375" y2="10.625" style="stroke:rgb(255,0,0);stroke-width:2" />
<line x1="26.375" y1="10.625" x2="26.375" y2="15.875" style="stroke:rgb(255,0,0);stroke-width:2" />
<line x1="26.375" y1="15.875" x2="21.125" y2="15.875" style="stroke:rgb(255,0,0);stroke-width:2" />
<line x1="21.125" y1="15.875" x2="21.125" y2="21.125" style="stroke:rgb(255,0,0);stroke-width:2" />
<line x1="21.125" y1="21.125" x2="26.375" y2="21.125" style="stroke:rgb(255,0,0);stroke-width:2" />
<line x1="26.375" y1="21.125" x2="26.375" y2="26.375" style="stroke:rgb(255,0,0);stroke-width:2" />
<line x1="26.375" y1="26.375" x2="21.125" y2="26.375" style="stroke:rgb(255,0,0);stroke-width:2" />
<line x1="21.125" y1="26.375" x2="15.875" y2="26.375" style="stroke:rgb(255,0,0);stroke-width:2" />
<line x1="15.875" y1="26.375" x2="15.875" y2="21.125" style="stroke:rgb(255,0,0);stroke-width:2" />
<line x1="15.875" y1="21.125" x2="10.625" y2="21.125" style="stroke:rgb(255,0,0);stroke-width:2" />
<line x1="10.625" y1="21.125" x2="10.625" y2="26.375" style="stroke:rgb(255,0,0);stroke-width:2" />
<line x1="10.625" y1="26.375" x2="10.625" y2="31.625" style="stroke:rgb(255,0,0);stroke-width:2" />
<line x1="10.625" y1="31.625" x2="15.875" y2="31.625" style="stroke:rgb(255,0,0);stroke-width:2" />
<line x1="15.875" y1="31.625" x2="15.875" y2="36.875" style="stroke:rgb(255,0,0);stroke-width:2" />
<line x1="15.875" y1="36.875" x2="10.625" y2="36.875" style="stroke:rgb(255,0,0);stroke-width:2" />
<line x1="10.625" y1="36.875" x2="10.625" y2="42.125" style="stroke:rgb(255,0,0);stroke-width:2" />
<line x1="10.625" y1="42.125" x2="10.625" y2="47.375" style="stroke:rgb(255,0,0);stroke-width:2" />
<line x1="10.625" y1="47.375" x2="15.875" y2="47.375" style="stroke:rgb(255,0,0);stroke-width:2" />
<line x1="15.875" y1="47.375" x2="15.875" y2="42.125" style="stroke:rgb(255,0,0);stroke-width:2" />
<line x1="15.875" y1="42.125" x2="21.125" y2="42.125" style="stroke:rgb(255,0,0);stroke-width:2" />
<line x1="21.125" y1="42.125" x2="21.125" y2="47.375" style="stroke:rgb(255,0,0);stroke-width:2" />
<line x1="21.125" y1="47.375" x2="26.375" y2="47.375" style="stroke:rgb(255,0,0);stroke-width:2" />
<line x1="26.375" y1="47.375" x2="26.375" y2="42.125" style="stroke:rgb(255,0,0);stroke-width:2" />
<line x1="26.375" y1="42.125" x2="26.375" y2="36.875" style="stroke:rgb(255,0,0);stroke-width:2" />
<line x1="26.375" y1="36.875" x2="21.125" y2="36.875" style="stroke:rgb(255,0,0);stroke-width:2" />
<line x1="21.125" y1="36.875" x2="21.125" y2="31.625" style="stroke:rgb(255,0,0);stroke-width:2" />
<line x1="21.125" y1="31.625" x2="26.375" y2="31.625" style="stroke:rgb(255,0,0);stroke-width:2" />
<line x1="26.375" y1="31.625" x2="31.625" y2="31.625" style="stroke:rgb(255,0,0);stroke-width:2" />
<line x1="31.625" y1="31.625" x2="36.875" y2="31.625" style="stroke:rgb(255,0,0);stroke-width:2" />
<line x1="36.875" y1="31.625" x2="36.875" y2="36.875" style="stroke:rgb(255,0,0);stroke-width:2" />
<line x1="36.875" y1="36.875" x2="31.625" y2="36.875" style="stroke:rgb(255,0,0);stroke-width:2" />
<line x1="31.625" y1="36.875" x2="31.625" y2="42.125" style="stroke:rgb(255,0,0);stroke-width:2" />
<line x1="31.625" y1="42.125" x2="31.625" y2="47.375" style="stroke:rgb(255,0,0);stroke-width:2" />
<line x1="31.625" y1="47.375" x2="36.875" y2="47.375" style="stroke:rgb(255,0,0);stroke-width:2" />
<line x1="36.875" y1="47.375" x2="36.875" y2="42.125" style="stroke:rgb(255,0,0);stroke-width:2" />
<line x1="36.875" y1="42.125" x2="42.125" y2="42.125" style="stroke:rgb(255,0,0);stroke-width:2" />
<line x1="42.125" y1="42.125" x2="42.125" y2="47.375" style="stroke:rgb(255,0,0);stroke-width:2" />
<line x1="42.125" y1="47.375" x2="47.375" y2="47.375" style="stroke:rgb(255,0,0);stroke-width:2" />
<line x1="47.375" y1="47.375" x2="47.375" y2="42.125" style="stroke:rgb(255,0,0);stroke-width:2" />
<line x1="47.375" y1="42.125" x2="47.375" y2="36.875" style="stroke:rgb(255,0,0);stroke-width:2" />
<line x1="47.375" y1="36.875" x2="42.125" y2="36.875" style="stroke:rgb(255,0,0);stroke-width:2" />
<line x1="42.125" y1="36.875" x2="42.125" y2="31.625" style="stroke:rgb(255,0,0);stroke-width:2" />
<line x1="42.125" y1="31.625" x2="47.375" y2="31.625" style="stroke:rgb(255,0,0);stroke-width:2" />
<line x1="47.375" y1="31.625" x2="47.375" y2="26.375" style="stroke:rgb(255,0,0);stroke-width:2" />
<line x1="47.375" y1="26.375" x2="47.375" y2="21.125" style="stroke:rgb(255,0,0);stroke-width:2" />
<line x1="47.375" y1="21.125" x2="42.125" y2="21.125" style="stroke:rgb(255,0,0);stroke-width:2" />
<line x1="42.125" y1="21.125" x2="42.125" y2="26.375" style="stroke:rgb(255,0,0);stroke-width:2" />
<line x1="42.125" y1="26.375" x2="36.875" y2="26.375" style="stroke:rgb(255,0,0);stroke-width:2" />
<line x1="36.875" y1="26.375" x2="31.625" y2="26.375" style="stroke:rgb(255,0,0);stroke-width:2" />
<line x1="31.625" y1="26.375" x2="31.625" y2="21.125" style="stroke:rgb(255,0,0);stroke-width:2" />
<line x1="31.625" y1="21.125" x2="36.875" y2="21.125" style="stroke:rgb(255,0,0);stroke-width:2" />
<line x1="36.875" y1="21.125" x2="36.875" y2="15.875" style="stroke:rgb(255,0,0);stroke-width:2" />
<line x1="36.875" y1="15.875" x2="31.625" y2="15.875" style="stroke:rgb(255,0,0);stroke-width:2" />
<line x1="31.625" y1="15.875" x2="31.625" y2="10.625" style="stroke:rgb(255,0,0);stroke-width:2" />
<line x1="31.625" y1="10.625" x2="36.875" y2="10.625" style="stroke:rgb(255,0,0);stroke-width:2" />
<line x1="36.875" y1="10.625" x2="42.125" y2="10.625" style="stroke:rgb(255,0,0);stroke-width:2" />
<line x1="42.125" y1="10.625" x2="42.125" y2="15.875" style="stroke:rgb(255,0,0);stroke-width:2" />
<line x1="42.125" y1="15.875" x2="47.375" y2="15.875" style="stroke:rgb(255,0,0);stroke-width:2" />
<line x1="47.375" y1="15.875" x2="47.375" y2="10.625" style="stroke:rgb(255,0,0);stroke-width:2" />
<line x1="47.375" y1="10.625" x2="52.625" y2="10.625" style="stroke:rgb(255,0,0);stroke-width:2" />
<line x1="52.625" y1="10.625" x2="57.875" y2="10.625" style="stroke:rgb(255,0,0);stroke-width:2" />
<line x1="57.875" y1="10.625" x2="57.875" y2="15.875" style="stroke:rgb(255,0,0);stroke-width:2" />
<line x1="57.875" y1="15.875" x2="52.625" y2="15.875" style="stroke:rgb(255,0,0);stroke-width:2" />
<line x1="52.625" y1="15.875" x2="52.625" y2="21.125" style="stroke:rgb(255,0,0);stroke-width:2" />
<line x1="52.625" y1="21.125" x2="52.625" y2="26.375" style="stroke:rgb(255,0,0);stroke-width:2" />
<line x1="52.625" y1="26.375" x2="57.875" y2="26.375" style="stroke:rgb(255,0,0);stroke-width:2" />
<line x1="57.875" y1="26.375" x2="57.875" y2="21.125" style="stroke:rgb(255,0,0);stroke-width:2" />
<line x1="57.875" y1="21.125" x2="63.125" y2="21.125" style="stroke:rgb(255,0,0);stroke-width:2" />
<line x1="63.125" y1="21.125" x2="63.125" y2="26.375" style="stroke:rgb(255,0,0);stroke-width:2" />
<line x1="63.125" y1="26.375" x2="68.375" y2="26.375" style="stroke:rgb(255,0,0);stroke-width:2" />
<line x1="68.375" y1="26.375" x2="68.375" y2="21.125" style="stroke:rgb(255,0,0);stroke-width:2" />
<line x1="68.375" y1="21.125" x2="68.375" y2="15.875" style="stroke:rgb(255,0,0);stroke-width:2" />
<line x1="68.375" y1="15.875" x2="63.125" y2="15.875" style="stroke:rgb(255,0,0);stroke-width:2" />
<line x1="63.125" y1="15.875" x2="63.125" y2="10.625" style="stroke:rgb(255,0,0);stroke-width:2" />
<line x1="63.125" y1="10.625" x2="68.375" y2="10.625" style="stroke:rgb(255,0,0);stroke-width:2" />
<line x1="68.375" y1="10.625" x2="73.625" y2="10.625" style="stroke:rgb(255,0,0);stroke-width:2" />
<line x1="73.625" y1="10.625" x2="73.625" y2="15.875" style="stroke:rgb(255,0,0);stroke-width:2" />
<line x1="73.625" y1="15.875" x2="78.875" y2="15.875" style="stroke:rgb(255,0,0);stroke-width:2" />
<line x1="78.875" y1="15.875" x2="78.875" y2="10.625" style="stroke:rgb(255,0,0);stroke-width:2" />
<line x1="78.875" y1="10.625" x2="84.125" y2="10.625" style="stroke:rgb(255,0,0);stroke-width:2" />
<line x1="84.125" y1="10.625" x2="89.375" y2="10.625" style="stroke:rgb(255,0,0);stroke-width:2" />
<line x1="89.375" y1="10.625" x2="89.375" y2="15.875" style="stroke:rgb(255,0,0);stroke-width:2" />
<line x1="89.375" y1="15.875" x2="84.125" y2="15.875" style="stroke:rgb(255,0,0);stroke-width:2" />
<line x1="84.125" y1="15.875" x2="84.125" y2="21.125" style="stroke:rgb(255,0,0);stroke-width:2" />
<line x1="84.125" y1="21.125" x2="89.375" y2="21.125" style="stroke:rgb(255,0,0);stroke-width:2" />
<line x1="89.375" y1="21.125" x2="89.375" y2="26.375" style="stroke:rgb(255,0,0);stroke-width:2" />
<line x1="89.375" y1="26.375" x2="84.125" y2="26.375" style="stroke:rgb(255,0,0);stroke-width:2" />
<line x1="84.125" y1="26.375" x2="78.875" y2="26.375" style="stroke:rgb(255,0,0);stroke-width:2" />
<line x1="78.875" y1="26.375" x2="78.875" y2="21.125" style="stroke:rgb(255,0,0);stroke-width:2" />
<line x1="78.875" y1="21.125" x2="73.625" y2="21.125" style="stroke:rgb(255,0,0);stroke-width:2" />
<line x1="73.625" y1="21.125" x2="73.625" y2="26.375" style="stroke:rgb(255,0,0);stroke-width:2" />
<line x1="73.625" y1="26.375" x2="73.625" y2="31.625" style="stroke:rgb(255,0,0);stroke-width:2" />
<line x1="73.625" y1="31.625" x2="73.625" y2="36.875" style="stroke:rgb(255,0,0);stroke-width:2" />
<line x1="73.625" y1="36.875" x2="78.875" y2="36.875" style="stroke:rgb(255,0,0);stroke-width:2" />
<line x1="78.875" y1="36.875" x2="78.875" y2="31.625" style="stroke:rgb(255,0,0);stroke-width:2" />
<line x1="78.875" y1="31.625" x2="84.125" y2="31.625" style="stroke:rgb(255,0,0);stroke-width:2" />
<line x1="84.125" y1="31.625" x2="89.375" y2="31.625" style="stroke:rgb(255,0,0);stroke-width:2" />
<line x1="89.375" y1="31.625" x2="89.375" y2="36.875" style="stroke:rgb(255,0,0);stroke-width:2" />
<line x1="89.375" y1="36.875" x2="84.125" y2="36.875" style="stroke:rgb(255,0,0);stroke-width:2" />
<line x1="84.125" y1="36.875" x2="84.125" y2="42.125" style="stroke:rgb(255,0,0);stroke-width:2" />
<line x1="84.125" y1="42.125" x2="89.375" y2="42.125" style="stroke:rgb(255,0,0);stroke-width:2" />
<line x1="89.375" y1="42.125" x2="89.375" y2="47.375" style="stroke:rgb(255,0,0);stroke-width:2" />
<line x1="89.375" y1="47.375" x2="84.125" y2="47.375" style="stroke:rgb(255,0,0);stroke-width:2" />
<line x1="84.125" y1="47.375" x2="78.875" y2="47.375" style="stroke:rgb(255,0,0);stroke-width:2" />
<line x1="78.875" y1="47.375" x2="78.875" y2="42.125" style="stroke:rgb(255,0,0);stroke-width:2" />
<line x1="78.875" y1="42.125" x2="73.625" y2="42.125" style="stroke:rgb(255,0,0);stroke-width:2" />
<line x1="73.625" y1="42.125" x2="73.625" y2="47.375" style="stroke:rgb(255,0,0);stroke-width:2" />
<line x1="73.625" y1="47.375" x2="68.375" y2="47.375" style="stroke:rgb(255,0,0);stroke-width:2" />
<line x1="68.375" y1="47.375" x2="63.125" y2="47.375" style="stroke:rgb(255,0,0);stroke-width:2" />
<line x1="63.125" y1="47.375" x2="63.125" y2="42.125" style="stroke:rgb(255,0,0);stroke-width:2" />
<line x1="63.125" y1="42.125" x2="68.375" y2="42.125" style="stroke:rgb(255,0,0);stroke-width:2" />
<line x1="68.375" y1="42.125" x2="68.375" y2="36.875" style="stroke:rgb(255,0,0);stroke-width:2" />
<line x1="68.375" y1="36.875" x2="68.375" y2="31.625" style="stroke:rgb(255,0,0);stroke-width:2" />
<line x1="68.375" y1="31.625" x2="63.125" y2="31.625" style="stroke:rgb(255,0,0);stroke-width:2" />
<line x1="63.125" y1="31.625" x2="63.125" y2="36.875" style="stroke:rgb(255,0,0);stroke-width:2" />
<line x1="63.125" y1="36.875" x2="57.875" y2="36.875" style="stroke:rgb(255,0,0);stroke-width:2" />
<line x1="57.875" y1="36.875" x2="57.875" y2="31.625" style="stroke:rgb(255,0,0);stroke-width:2" />
<line x1="57.875" y1="31.625" x2="52.625" y2="31.625" style="stroke:rgb(255,0,0);stroke-width:2" />
<line x1="52.625" y1="31.625" x2="52.625" y2="36.875" style="stroke:rgb(255,0,0);stroke-width:2" />
<line x1="52.625" y1="36.875" x2="52.625" y2="42.125" style="stroke:rgb(255,0,0);stroke-width:2" />
<line x1="52.625" y1="42.125" x2="57.875" y2="42.125" style="stroke:rgb(255,0,0);stroke-width:2" />
<line x1="57.875" y1="42.125" x2="57.875" y2="47.375" style="stroke:rgb(255,0,0);stroke-width:2" />
<line x1="57.875" y1="47.375" x2="52.625" y2="47.375" style="stroke:rgb(255,0,0);stroke-width:2" />
<line x1="52.625" y1="47.375" x2="52.625" y2="52.625" style="stroke:rgb(255,0,0);stroke-width:2" />
<line x1="52.625" y1="52.625" x2="57.875" y2="52.625" style="stroke:rgb(255,0,0);stroke-width:2" />
<line x1="57.875" y1="52.625" x2="57.875" y2="57.875" style="stroke:rgb(255,0,0);stroke-width:2" />
<line x1="57.875" y1="57.875" x2="52.625" y2="57.875" style="stroke:rgb(255,0,0);stroke-width:2" />
<line x1="52.625" y1="57.875" x2="52.625" y2="63.125" style="stroke:rgb(255,0,0);stroke-width:2" />
<line x1="52.625" y1="63.125" x2="52.625" y2="68.375" style="stroke:rgb(255,0,0);stroke-width:2" />
<line x1="52.625" y1="68.375" x2="57.875" y2="68.375" style="stroke:rgb(255,0,0);stroke-width:2" />
<line x1="57.875" y1="68.375" x2="57.875" y2="63.125" style="stroke:rgb(255,0,0);stroke-width:2" />
<line x1="57.875" y1="63.125" x2="63.125" y2="63.125" style="stroke:rgb(255,0,0);stroke-width:2" />
<line x1="63.125" y1="63.125" x2="63.125" y2="68.375" style="stroke:rgb(255,0,0);stroke-width:2" />
<line x1="63.125" y1="68.375" x2="68.375" y2="68.375" style="stroke:rgb(255,0,0);stroke-width:2" />
<line x1="68.375" y1="68.375" x2="68.375" y2="63.125" style="stroke:rgb(255,0,0);stroke-width:2" />
<line x1="68.375" y1="63.125" x2="68.375" y2="57.875" style="stroke:rgb(255,0,0);stroke-width:2" />
<line x1="68.375" y1="57.875" x2="63.125" y2="57.875" style="stroke:rgb(255,0,0);stroke-width:2" />
<line x1="63.125" y1="57.875" x2="63.125" y2="52.625" style="stroke:rgb(255,0,0);stroke-width:2" />
<line x1="63.125" y1="52.625" x2="68.375" y2="52.625" style="stroke:rgb(255,0,0);stroke-width:2" />
<line x1="68.375" y1="52.625" x2="73.625" y2="52.625" style="stroke:rgb(255,0,0);stroke-width:2" />
<line x1="73.625" y1="52.625" x2="73.625" y2="57.875" style="stroke:rgb(255,0,0);stroke-width:2" />
<line x1="73.625" y1="57.875" x2="78.875" y2="57.875" style="stroke:rgb(255,0,0);stroke-width:2" />
<line x1="78.875" y1="57.875" x2="78.875" y2="52.625" style="stroke:rgb(255,0,0);stroke-width:2" />
<line x1="78.875" y1="52.625" x2="84.125" y2="52.625" style="stroke:rgb(255,0,0);stroke-width:2" />
<line x1="84.125" y1="52.625" x2="89.375" y2="52.625" style="stroke:rgb(255,0,0);stroke-width:2" />
<line x1="89.375" y1="52.625" x2="89.375" y2="57.875" style="stroke:rgb(255,0,0);stroke-width:2" />
<line x1="89.375" y1="57.875" x2="84.125" y2="57.875" style="stroke:rgb(255,0,0);stroke-width:2" />
<line x1="84.125" y1="57.875" x2="84.125" y2="63.125" style="stroke:rgb(255,0,0);stroke-width:2" />
<line x1="84.125" y1="63.125" x2="89.375" y2="63.125" style="stroke:rgb(255,0,0);stroke-width:2" />
<line x1="89.375" y1="63.125" x2="89.375" y2="68.375" style="stroke:rgb(255,0,0);stroke-width:2" />
<line x1="89.375" y1="68.375" x2="84.125" y2="68.375" style="stroke:rgb(255,0,0);stroke-width:2" />
<line x1="84.125" y1="68.375" x2="78.875" y2="68.375" style="stroke:rgb(255,0,0);stroke-width:2" />
<line x1="78.875" y1="68.375" x2="78.875" y2="63.125" style="stroke:rgb(255,0,0);stroke-width:2" />
<line x1="78.875" y1="63.125" x2="73.625" y2="63.125" style="stroke:rgb(255,0,0);stroke-width:2" />
<line x1="73.625" y1="63.125" x2="73.625" y2="68.375" style="stroke:rgb(255,0,0);stroke-width:2" />
<line x1="73.625" y1="68.375" x2="73.625" y2="73.625" style="stroke:rgb(255,0,0);stroke-width:2" />
<line x1="73.625" y1="73.625" x2="73.625" y2="78.875" style="stroke:rgb(255,0,0);stroke-width:2" />
<line x1="73.625" y1="78.875" x2="78.875" y2="78.875" style="stroke:rgb(255,0,0);stroke-width:2" />
<line x1="78.875" y1="78.875" x2="78.875" y2="73.625" style="stroke:rgb(255,0,0);stroke-width:2" />
<line x1="78.875" y1="73.625" x2="84.125" y2="73.625" style="stroke:rgb(255,0,0);stroke-width:2" />
<line x1="84.125" y1="73.625" x2="89.375" y2="73.625" style="stroke:rgb(255,0,0);stroke-width:2" />
<line x1="89.375" y1="73.625" x2="89.375" y2="78.875" style="stroke:rgb(255,0,0);stroke-width:2" />
<line x1="89.375" y1="78.875" x2="84.125" y2="78.875" style="stroke:rgb(255,0,0);stroke-width:2" />
<line x1="84.125" y1="78.875" x2="84.125" y2="84.125" style="stroke:rgb(255,0,0);stroke-width:2" />
<line x1="84.125" y1="84.125" x2="89.375" y2="84.125" style="stroke:rgb(255,0,0);stroke-width:2" />
<line x1="89.375" y1="84.125" x2="89.375" y2="89.375" style="stroke:rgb(255,0,0);stroke-width:2" />
<line x1="89.375" y1="89.375" x2="84.125" y2="89.375" style="stroke:rgb(255,0,0);stroke-width:2" />
<line x1="84.125" y1="89.375" x2="78.875" y2="89.375" style="stroke:rgb(255,0,0);stroke-width:2" />
<line x1="78.875" y1="89.375" x2="78.875" y2="84.125" style="stroke:rgb(255,0,0);stroke-width:2" />
<line x1="78.875" y1="84.125" x2="73.625" y2="84.125" style="stroke:rgb(255,0,0);stroke-width:2" />
<line x1="73.625" y1="84.125" x2="73.625" y2="89.375" style="stroke:rgb(255,0,0);stroke-width:2" />
<line x1="73.625" y1="89.375" x2="68.375" y2="89.375" style="stroke:rgb(255,0,0);stroke-width:2" />
<line x1="68.375" y1="89.375" x2="63.125" y2="89.375" style="stroke:rgb(255,0,0);stroke-width:2" />
<line x1="63.125" y1="89.375" x2="63.125" y2="84.125" style="stroke:rgb(255,0,0);stroke-width:2" />
<line x1="63.125" y1="84.125" x2="68.375" y2="84.125" style="stroke:rgb(255,0,0);stroke-width:2" />
<line x1="68.375" y1="84.125" x2="68.375" y2="78.875" style="stroke:rgb(255,0,0);stroke-width:2" />
<line x1="68.375" y1="78.875" x2="68.375" y2="73.625" style="stroke:rgb(255,0,0);stroke-width:2" />
<line x1="68.375" y1="73.625" x2="63.125" y2="73.625" style="stroke:rgb(255,0,0);stroke-width:2" />
<line x1="63.125" y1="73.625" x2="63.125" y2="78.875" style="stroke:rgb(255,0,0);stroke-width:2" />
<line x1="63.125" y1="78.875" x2="57.875" y2="78.875" style="stroke:rgb(255,0,0);stroke-width:2" />
<line x1="57.875" y1="78.875" x2="57.875" y2="73.625" style="stroke:rgb(255,0,0);stroke-width:2" />
<line x1="57.875" y1="73.625" x2="52.625" y2="73.625" style="stroke:rgb(255,0,0);stroke-width:2" />
<line x1="52.625" y1="73.625" x2="52.625" y2="78.875" style="stroke:rgb(255,0,0);stroke-width:2" />
<line x1="52.625" y1="78.875" x2="52.625" y2="84.125" style="stroke:rgb(255,0,0);stroke-width:2" />
<line x1="52.625" y1="84.125" x2="57.875" y2="84.125" style="stroke:rgb(255,0,0);stroke-width:2" />
<line x1="57.875" y1="84.125" x2="57.875" y2="89.375" style="stroke:rgb(255,0,0);stroke-width:2" />
<line x1="57.875" y1="89.375" x2="52.625" y2="89.375" style="stroke:rgb(255,0,0);stroke-width:2" />
<line x1="52.625" y1="89.375" x2="47.375" y2="89.375" style="stroke:rgb(255,0,0);stroke-width:2" />
<line x1="47.375" y1="89.375" x2="47.375" y2="84.125" style="stroke:rgb(255,0,0);stroke-width:2" />
<line x1="47.375" y1="84.125" x2="42.125" y2="84.125" style="stroke:rgb(255,0,0);stroke-width:2" />
<line x1="42.125" y1="84.125" x2="42.125" y2="89.375" style="stroke:rgb(255,0,0);stroke-width:2" />
<line x1="42.125" y1="89.375" x2="36.875" y2="89.375" style="stroke:rgb(255,0,0);stroke-width:2" />
<line x1="36.875" y1="89.375" x2="31.625" y2="89.375" style="stroke:rgb(255,0,0);stroke-width:2" />
<line x1="31.625" y1="89.375" x2="31.625" y2="84.125" style="stroke:rgb(255,0,0);stroke-width:2" />
<line x1="31.625" y1="84.125" x2="36.875" y2="84.125" style="stroke:rgb(255,0,0);stroke-width:2" />
<line x1="36.875" y1="84.125" x2="36.875" y2="78.875" style="stroke:rgb(255,0,0);stroke-width:2" />
<line x1="36.875" y1="78.875" x2="31.625" y2="78.875" style="stroke:rgb(255,0,0);stroke-width:2" />
<line x1="31.625" y1="78.875" x2="31.625" y2="73.625" style="stroke:rgb(255,0,0);stroke-width:2" />
<line x1="31.625" y1="73.625" x2="36.875" y2="73.625" style="stroke:rgb(255,0,0);stroke-width:2" />
<line x1="36.875" y1="73.625" x2="42.125" y2="73.625" style="stroke:rgb(255,0,0);stroke-width:2" />
<line x1="42.125" y1="73.625" x2="42.125" y2="78.875" style="stroke:rgb(255,0,0);stroke-width:2" />
<line x1="42.125" y1="78.875" x2="47.375" y2="78.875" style="stroke:rgb(255,0,0);stroke-width:2" />
<line x1="47.375" y1="78.875" x2="47.375" y2="73.625" style="stroke:rgb(255,0,0);stroke-width:2" />
<line x1="47.375" y1="73.625" x2="47.375" y2="68.375" style="stroke:rgb(255,0,0);stroke-width:2" />
<line x1="47.375" y1="68.375" x2="42.125" y2="68.375" style="stroke:rgb(255,0,0);stroke-width:2" />
<line x1="42.125" y1="68.375" x2="42.125" y2="63.125" style="stroke:rgb(255,0,0);stroke-width:2" />
<line x1="42.125" y1="63.125" x2="47.375" y2="63.125" style="stroke:rgb(255,0,0);stroke-width:2" />
<line x1="47.375" y1="63.125" x2="47.375" y2="57.875" style="stroke:rgb(255,0,0);stroke-width:2" />
<line x1="47.375" y1="57.875" x2="47.375" y2="52.625" style="stroke:rgb(255,0,0);stroke-width:2" />
<line x1="47.375" y1="52.625" x2="42.125" y2="52.625" style="stroke:rgb(255,0,0);stroke-width:2" />
<line x1="42.125" y1="52.625" x2="42.125" y2="57.875" style="stroke:rgb(255,0,0);stroke-width:2" />
<line x1="42.125" y1="57.875" x2="36.875" y2="57.875" style="stroke:rgb(255,0,0);stroke-width:2" />
<line x1="36.875" y1="57.875" x2="36.875" y2="52.625" style="stroke:rgb(255,0,0);stroke-width:2" />
<line x1="36.875" y1="52.625" x2="31.625" y2="52.625" style="stroke:rgb(255,0,0);stroke-width:2" />
<line x1="31.625" y1="52.625" x2="31.625" y2="57.875" style="stroke:rgb(255,0,0);stroke-width:2" />
<line x1="31.625" y1="57.875" x2="31.625" y2="63.125" style="stroke:rgb(255,0,0);stroke-width:2" />
<line x1="31.625" y1="63.125" x2="36.875" y2="63.125" style="stroke:rgb(255,0,0);stroke-width:2" />
<line x1="36.875" y1="63.125" x2="36.875" y2="68.375" style="stroke:rgb(255,0,0);stroke-width:2" />
<line x1="36.875" y1="68.375" x2="31.625" y2="68.375" style="stroke:rgb(255,0,0);stroke-width:2" />
<line x1="31.625" y1="68.375" x2="26.375" y2="68.375" style="stroke:rgb(255,0,0);stroke-width:2" />
<line x1="26.375" y1="68.375" x2="21.125" y2="68.375" style="stroke:rgb(255,0,0);stroke-width:2" />
<line x1="21.125" y1="68.375" x2="21.125" y2="63.125" style="stroke:rgb(255,0,0);stroke-width:2" />
<line x1="21.125" y1="63.125" x2="26.375" y2="63.125" style="stroke:rgb(255,0,0);stroke-width:2" />
<line x1="26.375" y1="63.125" x2="26.375" y2="57.875" style="stroke:rgb(255,0,0);stroke-width:2" />
<line x1="26.375" y1="57.875" x2="26.375" y2="52.625" style="stroke:rgb(255,0,0);stroke-width:2" />
<line x1="26.375" y1="52.625" x2="21.125" y2="52.625" style="stroke:rgb(255,0,0);stroke-width:2" />
<line x1="21.125" y1="52.625" x2="21.125" y2="57.875" style="stroke:rgb(255,0,0);stroke-width:2" />
<line x1="21.125" y1="57.875" x2="15.875" y2="57.875" style="stroke:rgb(255,0,0);stroke-width:2" />
<line x1="15.875" y1="57.875" x2="15.875" y2="52.625" style="stroke:rgb(255,0,0);stroke-width:2" />
<line x1="15.875" y1="52.625" x2="10.625" y2="52.625" style="stroke:rgb(255,0,0);stroke-width:2" />
<line x1="10.625" y1="52.625" x2="10.625" y2="57.875" style="stroke:rgb(255,0,0);stroke-width:2" />
<line x1="10.625" y1="57.875" x2="10.625" y2="63.125" style="stroke:rgb(255,0,0);stroke-width:2" />
<line x1="10.625" y1="63.125" x2="15.875" y2="63.125" style="stroke:rgb(255,0,0);stroke-width:2" />
<line x1="15.875" y1="63.125" x2="15.875" y2="68.375" style="stroke:rgb(255,0,0);stroke-width:2" />
<line x1="15.875" y1="68.375" x2="10.625" y2="68.375" style="stroke:rgb(255,0,0);stroke-width:2" />
<line x1="10.625" y1="68.375" x2="10.625" y2="73.625" style="stroke:rgb(255,0,0);stroke-width:2" />
<line x1="10.625" y1="73.625" x2="10.625" y2="78.875" style="stroke:rgb(255,0,0);stroke-width:2" />
<line x1="10.625" y1="78.875" x2="15.875" y2="78.875" style="stroke:rgb(255,0,0);stroke-width:2" />
<line x1="15.875" y1="78.875" x2="15.875" y2="73.625" style="stroke:rgb(255,0,0);stroke-width:2" />
<line x1="15.875" y1="73.625" x2="21.125" y2="73.625" style="stroke:rgb(255,0,0);stroke-width:2" />
<line x1="21.125" y1="73.625" x2="26.375" y2="73.625" style="stroke:rgb(255,0,0);stroke-width:2" />
<line x1="26.375" y1="73.625" x2="26.375" y2="78.875" style="stroke:rgb(255,0,0);stroke-width:2" />
<line x1="26.375" y1="78.875" x2="21.125" y2="78.875" style="stroke:rgb(255,0,0);stroke-width:2" />
<line x1="21.125" y1="78.875" x2="21.125" y2="84.125" style="stroke:rgb(255,0,0);stroke-width:2" />
<line x1="21.125" y1="84.125" x2="26.375" y2="84.125" style="stroke:rgb(255,0,0);stroke-width:2" />
<line x1="26.375" y1="84.125" x2="26.375" y2="89.375" style="stroke:rgb(255,0,0);stroke-width:2" />
<line x1="26.375" y1="89.375" x2="21.125" y2="89.375" style="stroke:rgb(255,0,0);stroke-width:2" />
<line x1="21.125" y1="89.375" x2="15.875" y2="89.375" style="stroke:rgb(255,0,0);stroke-width:2" />
<line x1="15.875" y1="89.375" x2="15.875" y2="84.125" style="stroke:rgb(255,0,0);stroke-width:2" />
<line x1="15.875" y1="84.125" x2="10.625" y2="84.125" style="stroke:rgb(255,0,0);stroke-width:2" />
<line x1="10.625" y1="84.125" x2="10.625" y2="89.375" style="stroke:rgb(255,0,0);stroke-width:2" />
</svg>