<?xml version="1.0" encoding="UTF-8" ?>
<svg height="100" width="100" xmlns="http://www.w3.org/2000/svg" version="1.1">
<line x1="13.25" y1="13.25" x2="23.75" y2="13.25" style="stroke:rgb(255,0,0);stroke-width:2" />
<line x1="23.75" y1="13.25" x2="23.75" y2="23.75" style="stroke:rgb(255,0,0);stroke-width:2" />
<line x1="23.75" y1="23.75" x2="13.25" y2="23.75" style="stroke:rgb(255,0,0);stroke-width:2" />
<line x1="13.25" y1="23.75" x2="13.25" y2="34.25" style="stroke:rgb(255,0,0);stroke-width:2" />
<line x1="13.25" y1="34.25" x2="13.25" y2="44.75" style="stroke:rgb(255,0,0);stroke-width:2" />
<line x1="13.25" y1="44.75" x2="23.75" y2="44.75" style="stroke:rgb(255,0,0);stroke-width:2" />
<line x1="23.75" y1="44.75" x2="23.75" y2="34.25" style="stroke:rgb(255,0,0);stroke-width:2" />
<line x1="23.75" y1="34.25" x2="34.25" y2="34.25" style="stroke:rgb(255,0,0);stroke-width:2" />
<line x1="34.25" y1="34.25" x2="34.25" y2="44.75" style="stroke:rgb(255,0,0);stroke-width:2" />
<line x1="34.25" y1="44.75" x2="44.75" y2="44.75" style="stroke:rgb(255,0,0);stroke-width:2" />
<line x1="44.75" y1="44.75" x2="44.75" y2="34.25" style="stroke:rgb(255,0,0);stroke-width:2" />
<line x1="44.75" y1="34.25" x2="44.75" y2="23.75" style="stroke:rgb(255,0,0);stroke-width:2" />
<line x1="44.75" y1="23.75" x2="34.25" y2="23.75" style="stroke:rgb(255,0,0);stroke-width:2" />
<line x1="34.25" y1="23.75" x2="34.25" y2="13.25" style="stroke:rgb(255,0,0);stroke-width:2" />
<line x1="34.25" y1="13.25" x2="44.75" y2="13.25" style="stroke:rgb(255,0,0);stroke-width:2" />
<line x1="44.75" y1="13.25" x2="55.25" y2="13.25" style="stroke:rgb(255,0,0);stroke-width:2" />
<line x1="55.25" y1="13.25" x2="55.25" y2="23.75" style="stroke:rgb(255,0,0);stroke-width:2" />
<line x1="55.25" y1="23.75" x2="65.75" y2="23.75" style="stroke:rgb(255,0,0);stroke-width:2" />
<line x1="65.75" y1="23.75" x2="65.75" y2="13.25" style="stroke:rgb(255,0,0);stroke-width:2" />
<line x1="65.75" y1="13.25" x2="76.25" y2="13.25" style="stroke:rgb(255,0,0);stroke-width:2" />
<line x1="76.25" y1="13.25" x2="86.75" y2="13.25" style="stroke:rgb(255,0,0);stroke-width:2" />
<line x1="86.75" y1="13.25" x2="86.75" y2="23.75" style="stroke:rgb(255,0,0);stroke-width:2" />
<line x1="86.75" y1="23.75" x2="76.25" y2="23.75" style="stroke:rgb(255,0,0);stroke-width:2" />
<line x1="76.25" y1="23.75" x2="76.25" y2="34.25" style="stroke:rgb(255,0,0);stroke-width:2" />
<line x1="76.25" y1="34.25" x2="86.75" y2="34.25" style="stroke:rgb(255,0,0);stroke-width:2" />
<line x1="86.75" y1="34.25" x2="86.75" y2="44.75" style="stroke:rgb(255,0,0);stroke-width:2" />
<line x1="86.75" y1="44.75" x2="76.25" y2="44.75" style="stroke:rgb(255,0,0);stroke-width:2" />
<line x1="76.25" y1="44.75" x2="65.75" y2="44.75" style="stroke:rgb(255,0,0);stroke-width:2" />
<line x1="65.75" y1="44.75" x2="65.75" y2="34.25" style="stroke:rgb(255,0,0);stroke-width:2" />
<line x1="65.75" y1="34.25" x2="55.25" y2="34.25" style="stroke:rgb(255,0,0);stroke-width:2" />
<line x1="55.25" y1="34.25" x2="55.25" y2="44.75" style="stroke:rgb(255,0,0);stroke-width:2" />
<line x1="55.25" y1="44.75" x2="55.25" y2="55.25" style="stroke:rgb(255,0,0);stroke-width:2" />
<line x1="55.25" y1="55.25" x2="55.25" y2="65.75" style="stroke:rgb(255,0,0);stroke-width:2" />
<line x1="55.25" y1="65.75" x2="65.75" y2="65.75" style="stroke:rgb(255,0,0);stroke-width:2" />
<line x1="65.75" y1="65.75" x2="65.75" y2="55.25" style="stroke:rgb(255,0,0);stroke-width:2" />
<line x1="65.75" y1="55.25" x2="76.25" y2="55.25" style="stroke:rgb(255,0,0);stroke-width:2" />
<line x1="76.25" y1="55.25" x2="86.75" y2="55.25" style="stroke:rgb(255,0,0);stroke-width:2" />
<line x1="86.75" y1="55.25" x2="86.75" y2="65.75" style="stroke:rgb(255,0,0);stroke-width:2" />
<line x1="86.75" y1="65.75" x2="76.25" y2="65.75" style="stroke:rgb(255,0,0);stroke-width:2" />
<line x1="76.25" y1="65.75" x2="76.25" y2="76.25" style="stroke:rgb(255,0,0);stroke-width:2" />
<line x1="76.25" y1="76.25" x2="86.75" y2="76.25" style="stroke:rgb(255,0,0);stroke-width:2" />
<line x1="86.75" y1="76.25" x2="86.75" y2="86.75" style="stroke:rgb(255,0,0);stroke-width:2" />
<line x1="86.75" y1="86.75" x2="76.25" y2="86.75" style="stroke:rgb(255,0,0);stroke-width:2" />
<line x1="76.25" y1="86.75" x2="65.75" y2="86.75" style="stroke:rgb(255,0,0);stroke-width:2" />
<line x1="65.75" y1="86.75" x2="65.75" y2="76.25" style="stroke:rgb(255,0,0);stroke-width:2" />
<line x1="65.75" y1="76.25" x2="55.25" y2="76.25" style="stroke:rgb(255,0,0);stroke-width:2" />
<line x1="55.25" y1="76.25" x2="55.25" y2="86.75" style="stroke:rgb(255,0,0);stroke-width:2" />
<line x1="55.25" y1="86.75" x2="44.75" y2="86.75" style="stroke:rgb(255,0,0);stroke-width:2" />
<line x1="44.75" y1="86.75" x2="34.25" y2="86.75" style="stroke:rgb(255,0,0);stroke-width:2" />
<line x1="34.25" y1="86.75" x2="34.25" y2="76.25" style="stroke:rgb(255,0,0);stroke-width:2" />
<line x1="34.25" y1="76.25" x2="44.75" y2="76.25" style="stroke:rgb(255,0,0);stroke-width:2" />
<line x1="44.75" y1="76.25" x2="44.75" y2="65.75" style="stroke:rgb(255,0,0);stroke-width:2" />
<line x1="44.75" y1="65.75" x2="44.75" y2="55.25" style="stroke:rgb(255,0,0);stroke-width:2" />
<line x1="44.75" y1="55.25" x2="34.25" y2="55.25" style="stroke:rgb(255,0,0);stroke-width:2" />
<line x1="34.25" y1="55.25" x2="34.25" y2="65.75" style="stroke:rgb(255,0,0);stroke-width:2" />
<line x1="34.25" y1="65.75" x2="23.75" y2="65.75" style="stroke:rgb(255,0,0);stroke-width:2" />
<line x1="23.75" y1="65.75" x2="23.75" y2="55.25" style="stroke:rgb(255,0,0);stroke-width:2" />
<line x1="23.75" y1="55.25" x2="13.25" y2="55.25" style="stroke:rgb(255,0,0);stroke-width:2" />
<line x1="13.25" y1="55.25" x2="13.25" y2="65.75" style="stroke:rgb(255,0,0);stroke-width:2" />
<line x1="13.25" y1="65.75" x2="13.25" y2="76.25" style="stroke:rgb(255,0,0);stroke-width:2" />
<line x1="13.25" y1="76.25" x2="23.75" y2="76.25" style="stroke:rgb(255,0,0);stroke-width:2" />
<line x1="23.75" y1="76.25" x2="23.75" y2="86.75" style="stroke:rgb(255,0,0);stroke-width:2" />
<line x1="23.75" y1="86.75" x2="13.25" y2="86.75" style="stroke:rgb(255,0,0);stroke-width:2" />
</svg>